<svg id="illustration" xmlns="http://www.w3.org/2000/svg" viewBox="0 0 350 350"><defs><style>.cls-1,.cls-19{fill:none;}.cls-2{fill:#ececeb;}.cls-3{clip-path:url(#clip-path);}.cls-4{fill:#b8c745;}.cls-5{fill:#e8f078;}.cls-6{fill:#5a753d;}.cls-7{fill:#2b2b2b;}.cls-8{fill:#c3987b;}.cls-9{fill:#35785d;}.cls-10{fill:#54b08b;}.cls-11{fill:#dfbda5;}.cls-12{fill:#446125;}.cls-13{fill:#8b6651;}.cls-14{fill:#e8cab6;}.cls-15{fill:#474747;}.cls-16{fill:#738d57;}.cls-17{fill:#4f5253;}.cls-18{fill:#6f7173;}.cls-19{stroke:#8b6651;stroke-miterlimit:10;stroke-width:6.79px;}</style><clipPath id="clip-path"><circle class="cls-1" cx="175" cy="175" r="175"/></clipPath></defs><circle class="cls-2" cx="175" cy="175" r="175"/><g class="cls-3"><polygon class="cls-4" points="70.16 207.08 12.89 246.51 9.18 293.38 48.35 362.99 317.85 338.94 309.54 234.33 280.98 217.01 70.16 207.08"/><polygon class="cls-5" points="280.98 217.01 70.17 207.08 12.9 246.51 9.18 293.38 65.26 254.76 286.12 250.46 309.55 234.33 280.98 217.01"/><polygon class="cls-6" points="74.27 245.75 65.78 295.7 33.56 364.95 290.65 396.74 314.69 317.07 279.01 249.78 177.34 219.23 74.27 245.75"/><polygon class="cls-7" points="132.33 244.91 103.94 165.17 99.87 84.25 81.55 84.25 76.19 124.56 65.26 254.76 132.33 244.91"/><polygon class="cls-7" points="269.51 142.43 286.12 250.46 244.11 246.51 239.1 131.97 269.51 142.43"/><polygon class="cls-8" points="108.98 257.68 116.19 296.69 200.89 317.07 243.56 313.41 224.76 263.14 108.98 257.68"/><polygon class="cls-9" points="112.14 281.55 198.44 301.17 240.39 285.04 250.77 317.08 224.76 336.7 105.51 309.35 112.14 281.55"/><polygon class="cls-10" points="198.44 301.17 200.89 317.08 112.14 321.06 113.39 281.55 198.44 301.17"/><polygon class="cls-11" points="242.61 263.98 141.91 259.24 109.31 264.82 99.87 84.25 257.3 77.46 242.61 263.98"/><polygon class="cls-8" points="93.53 69.84 112.04 99.3 118.63 258.14 138.99 264.4 110.29 274.03 93.53 69.84"/><polygon class="cls-6" points="41.36 278.67 200.89 317.07 237.04 316.72 244.46 246.51 286.12 250.46 358.02 358.65 279.89 372.18 74.27 372.18 38.19 336.7 41.36 278.67"/><polygon class="cls-12" points="200.89 317.08 210.11 371.19 260.81 371.19 286.12 250.46 244.11 246.51 242.61 263.98 224.76 263.14 223.16 309.13 200.89 317.08"/><polygon class="cls-13" points="170.54 200.46 185.31 210.57 200.08 200.46 170.54 200.46"/><polygon class="cls-8" points="124.36 161.7 155.24 171.19 170.54 200.46 179.25 153.18 135.25 149.19 124.36 161.7"/><polygon class="cls-8" points="200.08 200.46 222.04 171.19 246.26 161.7 235.36 154.84 215.38 152.62 191.37 153.18 191.37 182.49 200.08 200.46"/><polygon class="cls-14" points="200.08 200.46 185.31 204.17 170.54 200.46 179.25 153.18 191.37 153.18 200.08 200.46"/><polygon class="cls-15" points="191.37 153.18 235.36 154.84 246.26 161.7 235.36 143.54 191.37 153.18"/><polygon class="cls-15" points="179.25 153.18 135.25 154.84 124.36 161.7 135.25 143.54 179.25 153.18"/><polygon class="cls-16" points="33.56 364.95 42.08 270.73 65.26 254.76 108.19 248.46 108.97 257.68 130.96 376.47 33.56 364.95"/><polygon class="cls-13" points="194.94 286.15 224.76 263.14 242.61 263.98 108.97 257.68 194.94 286.15"/><polygon class="cls-17" points="73.83 152.62 76.96 74.23 134.25 47.65 222.04 47.65 276.12 84.25 269.51 142.43 251.94 145.47 256 90.84 188.06 113.09 114.57 80.01 102.15 174.82 73.83 152.62"/><polygon class="cls-18" points="188.06 113.09 134.25 47.65 76.96 74.23 112.04 99.31 188.06 113.09"/><polygon class="cls-8" points="116.79 213.76 246.13 219.23 242.61 263.98 118.63 258.14 116.79 213.76"/><polygon class="cls-15" points="222.04 47.65 188.06 113.09 255.4 98.8 276.12 84.25 222.04 47.65"/><polygon class="cls-13" points="143.22 225.62 154.67 224.29 141.91 236.67 143.22 225.62"/><polyline class="cls-19" points="147.11 229.45 153.04 235.39 188.41 235.39"/></g><circle class="cls-7" cx="148.61" cy="171.9" r="7.25"/><circle class="cls-7" cx="215.45" cy="171.9" r="7.25"/></svg>