<svg id="illustration" xmlns="http://www.w3.org/2000/svg" viewBox="0 0 350 350"><defs><style>.cls-1{fill:none;}.cls-2,.cls-4{fill:#ececeb;}.cls-3{clip-path:url(#clip-path);}.cls-10,.cls-11,.cls-12,.cls-13,.cls-14,.cls-15,.cls-16,.cls-4,.cls-5,.cls-6,.cls-7,.cls-8,.cls-9{fill-rule:evenodd;}.cls-5{fill:#5a753d;}.cls-6{fill:#738d57;}.cls-7{fill:#dfbda5;}.cls-8{fill:#c3987b;}.cls-9{fill:#8b6651;}.cls-10{fill:#474747;}.cls-11{fill:#e8cab6;}.cls-12{fill:#446125;}.cls-13{fill:#fff;}.cls-14{fill:#35785d;}.cls-15,.cls-17{fill:#2b2b2b;}.cls-16{fill:#6f7173;}</style><clipPath id="clip-path"><circle class="cls-1" cx="175" cy="175" r="175"/></clipPath></defs><circle class="cls-2" cx="175" cy="175" r="175"/><g class="cls-3"><polygon class="cls-4" points="161.1 299.67 201.63 319.97 249.15 356.14 203.84 370.18 156.66 377.04 155.35 343.83 161.1 299.67"/><polygon class="cls-4" points="238.39 290.71 280.28 348.13 263.21 355.71 249.15 356.14 236.24 320.35 238.39 290.71"/><polygon class="cls-5" points="259.44 319.39 270.49 313.18 286.54 310.86 280.28 348.13 259.44 319.39"/><polygon class="cls-6" points="259.33 319.42 286.54 310.86 238.39 290.71 259.33 319.42"/><polygon class="cls-6" points="161.1 299.67 120.13 338.2 140.38 343.98 158.76 340.42 161.1 299.67"/><path class="cls-5" d="M128.44,377.16a203.49,203.49,0,0,1,28.11,2l.11-2.16,2.1-36.62-38.63-2.22-5.89,39.06Q121.26,376.9,128.44,377.16Z"/><polygon class="cls-7" points="250.48 102.23 256.48 117.55 257.01 132.87 279.65 239.04 232.25 253.42 238.41 320.81 249.15 356.14 198.58 318.26 161.1 299.67 153.23 276.81 138.5 258.06 121.97 227.63 117.91 233.19 112.19 234.3 97.75 216.94 89.95 200.5 102.06 186.7 115.75 182.27 122.43 185.42 124.64 199.17 125.28 162.67 136.2 128.02 160.07 103.81 192.67 88.89 226.47 90.62 250.48 102.23"/><polygon class="cls-8" points="136.2 128.02 157.77 147.37 184.67 267.2 240.7 304.78 249.15 356.14 161.1 299.67 121.97 227.63 125.08 209.4 124.64 199.17 124.96 180.92 129.11 171.68 126.97 157.32 136.2 128.02"/><polygon class="cls-8" points="212.91 187.39 182.34 154.26 157.77 147.37 184 136.69 194.68 134.92 212.91 187.39"/><polygon class="cls-8" points="209.79 130.47 219.58 126.91 245.81 125.13 229.17 139.46 221.07 162.16 209.79 130.47"/><polygon class="cls-9" points="228.47 182.94 222.47 193.39 212.91 187.39 228.47 182.94"/><polygon class="cls-10" points="219.58 126.91 232.47 118.91 245.81 125.13 219.58 126.91"/><polygon class="cls-10" points="184 136.69 169.33 135.36 157.77 147.37 184 136.69"/><polygon class="cls-11" points="194.68 134.92 212.91 187.39 228.47 182.94 209.79 130.47 194.68 134.92"/><polygon class="cls-12" points="182.56 217.14 224.47 199.71 253.04 201.93 224.1 214.18 182.56 217.14"/><polygon class="cls-6" points="182.56 217.14 232.64 234.21 253.04 201.93 224.1 214.18 182.56 217.14"/><polygon class="cls-13" points="191.47 216.51 219.94 224.86 236.42 221.44 246.58 204.66 224.1 214.18 191.47 216.51"/><polygon class="cls-9" points="101.52 204.06 111.74 196.95 120.64 205.4 101.52 204.06"/><polygon class="cls-14" points="115.75 215.62 121.97 227.63 126.34 235.67 136.2 228.96 125.08 209.4 115.75 215.62"/><polygon class="cls-15" points="138.5 258.06 118.28 247.91 102.54 245.12 91.09 234.25 67.28 222.29 78.55 205.45 89.95 200.5 112.19 234.3 121.97 227.63 138.5 258.06"/><polygon class="cls-15" points="115.75 182.27 116.79 175.02 129.11 171.68 124.64 199.17 115.75 182.27"/><polygon class="cls-10" points="67.28 222.29 66.83 175.16 98.72 146.75 136.2 128.02 129.11 171.68 115.75 182.27 89.95 200.5 67.28 222.29"/><polygon class="cls-15" points="262.49 105.34 257.01 132.87 250.48 102.23 262.49 105.34"/><polygon class="cls-10" points="91.09 234.25 70.39 276.99 110.41 315.23 118.28 247.91 91.09 234.25"/><polygon class="cls-10" points="159.32 36.42 265.16 82.67 262.49 105.34 250.48 102.23 192.67 88.89 173.94 71.45 159.32 36.42"/><polygon class="cls-16" points="66.83 175.16 66.83 117.8 159.32 36.42 192.67 88.89 136.2 128.02 66.83 175.16"/><polygon class="cls-9" points="232.25 253.42 169.83 270.92 240.7 304.78 232.25 253.42"/><polygon class="cls-9" points="136.2 228.96 138.5 258.06 126.34 235.67 136.2 228.96"/></g><circle class="cls-17" cx="178.23" cy="160.06" r="7.33"/><circle class="cls-17" cx="235.25" cy="143.15" r="7.33"/></svg>