<svg id="illustration" xmlns="http://www.w3.org/2000/svg" viewBox="0 0 350 350"><defs><style>.cls-1{fill:none;}.cls-2{fill:#ececeb;}.cls-3{clip-path:url(#clip-path);}.cls-4{fill:#734d60;}.cls-5{fill:#a3a3a3;}.cls-6{fill:#c4c4c4;}.cls-7{fill:#8f8f8f;}.cls-8{fill:#2b2b2b;}.cls-9{fill:#4f5253;}.cls-10{fill:#474747;}.cls-11{fill:#f5cab3;}.cls-12{fill:#fde4d5;}.cls-13{fill:#fff;}.cls-14{fill:#c2917d;}.cls-15{fill:#fff0e8;}.cls-16{fill:#6f7173;}.cls-17{fill:#785d88;}.cls-18{fill:#cececd;}.cls-19{fill:#594165;}</style><clipPath id="clip-path"><circle class="cls-1" cx="175" cy="175" r="175"/></clipPath></defs><circle class="cls-2" cx="175" cy="175" r="175"/><g class="cls-3"><polygon id="_170304424" data-name=" 170304424" class="cls-4" points="93.06 309.29 89.5 331.77 89.5 331.77 124.77 349.28 132.29 341.65 124.42 285.76 97.29 299.54 93.06 309.29"/><path class="cls-4" d="M233.36,354.52c5-.21,10-.39,15-.71,4.11-.81,8.2-1.79,12.21-3,.43-.27.87-.55,1.29-.84,4.06-3.32,8.13-6.67,12.36-9.73l-33.34-52.65-10.43-.88-3.73,16.5L210,331.71l22.34,22.86Z"/><path class="cls-5" d="M141.41,350.65c10.1-.36,19.94.92,29.94,2.65A56.36,56.36,0,0,1,185.21,358c4.53.09,9.07-.07,13.6-.37l4.11-22.15-10.78-19.34-19.42-42.77-42.49,10.22-5.81,2.2-11.77,15.59,11.15,50C129.66,351.12,135.52,350.86,141.41,350.65Z"/><path class="cls-6" d="M193,357.91c5.94-.22,11.87-.74,17.79-1.34,7.5-1,15-1.73,22.6-2.05l3.59-.15,3.28-57.8-4.13-6.75-23.56-6-16.63-3.21-3.77,35.52Z"/><polygon id="_169441712" data-name=" 169441712" class="cls-7" points="212.54 283.81 240.86 287.59 240.23 296.57 218.56 296.51 216.51 292.17 212.54 283.81"/><path class="cls-4" d="M86.21,352.49c7-.39,13.9-.66,20.86-.72,8.88-.08,17.69-.46,26.53-.82l-9.18-65.18-28.93,7.82,6.82,22.53L89.5,331.78Z"/><polygon id="_170304280" data-name=" 170304280" class="cls-8" points="-27.69 220.1 19.12 283.65 32.33 284.05 44.29 244.48 46.35 230.3 -27.69 220.1"/><polygon id="_169441784" data-name=" 169441784" class="cls-7" points="130.23 283.56 95.61 292.81 93.04 309.18 93.06 309.29 137.83 294.44 130.23 283.56"/><polygon id="_170304208" data-name=" 170304208" class="cls-9" points="221.27 174.44 71.9 299.54 19.12 283.65 99.87 106.93 221.27 174.44"/><polygon id="_170304136" data-name=" 170304136" class="cls-8" points="221.27 174.44 204.33 231.06 71.9 299.54 140.38 136.35 221.27 174.44"/><polygon id="_170304064" data-name=" 170304064" class="cls-10" points="239.3 119.6 258.24 115.03 246.7 193.85 215.3 59.62 239.3 119.6"/><polygon id="_170303920" data-name=" 170303920" class="cls-11" points="151.39 290.97 82.93 131.04 122.07 103.22 162.7 151.56 206.31 253.52 191.49 322.89 151.39 290.97"/><polygon id="_170303848" data-name=" 170303848" class="cls-12" points="233.26 75.14 256.69 248.41 161.45 265.4 120.32 103.67 233.26 75.14"/><polygon id="_170303776" data-name=" 170303776" class="cls-13" points="198.19 232.47 183.12 226.97 199.09 222.15 211.07 224.71 223.85 222.79 228.59 223.45 207.31 233.12 198.19 232.47"/><polygon id="_170303704" data-name=" 170303704" class="cls-14" points="205.85 257.2 191.57 323.34 151 266.39 205.85 257.2"/><polygon id="_170303632" data-name=" 170303632" class="cls-10" points="110.51 122.29 139.99 264.33 67.63 146.77 110.51 122.29"/><polygon id="_170303560" data-name=" 170303560" class="cls-15" points="130.47 177.07 106.94 182.51 119.1 212.53 138.88 204.44 130.47 177.07"/><polygon id="_170303488" data-name=" 170303488" class="cls-14" points="125.48 184.07 114.58 187.18 119.25 195.89 125.48 184.07"/><polygon id="_170303344" data-name=" 170303344" class="cls-15" points="206.62 149.69 217.58 196.46 200.86 198.82 193.9 151.37 206.62 149.69"/><polygon id="_170303272" data-name=" 170303272" class="cls-14" points="208.28 206.54 217.58 196.46 200.86 198.82 208.28 206.54"/><polygon id="_170303200" data-name=" 170303200" class="cls-11" points="162 155.66 193.9 151.37 200.86 198.82 162 155.66"/><polygon id="_170303128" data-name=" 170303128" class="cls-11" points="215.09 185.83 231.29 143.72 206.62 149.69 215.09 185.83"/><polygon id="_170303056" data-name=" 170303056" class="cls-8" points="157.91 145.41 184 156.27 148.94 156.8 157.91 145.41"/><polygon id="_170302840" data-name=" 170302840" class="cls-14" points="228.59 223.45 207.11 216.5 183.12 226.97 228.59 223.45"/><polygon id="_170302768" data-name=" 170302768" class="cls-11" points="206.02 238.17 228.59 223.45 207.37 229.21 183.12 226.97 206.02 238.17"/><polygon id="_170302696" data-name=" 170302696" class="cls-8" points="238.37 141.53 211.65 150.31 231.88 130.49 238.37 141.53"/><polygon id="_170302624" data-name=" 170302624" class="cls-9" points="245.08 96.83 136.98 169.17 61.53 151.48 73.22 100.43 199.6 58.56 245.08 96.83"/><polygon id="_169442360" data-name=" 169442360" class="cls-16" points="245.08 96.83 136.98 169.17 209.46 55.03 245.08 96.83"/><circle class="cls-8" cx="172.6" cy="168.67" r="6.5"/><circle class="cls-8" cx="226.4" cy="160.93" r="6.5"/><polygon class="cls-17" points="127.93 46.98 136.52 84.73 137.04 150.14 55.38 142.15 57.81 99.89 127.93 46.98"/><path class="cls-18" d="M245.08,89.29,221.14,44l-93.21,3L137,150.14Z"/><path class="cls-19" d="M218.66,101,239.3,119.6l53.78-13L262.16,85Z"/><polygon class="cls-17" points="137.04 150.14 262.16 85.02 148.41 102.38 137.04 150.14"/><polygon class="cls-19" points="55.38 142.15 137.04 150.14 63.85 185.76 55.38 142.15"/></g></svg>