<svg xmlns="http://www.w3.org/2000/svg" xmlns:xlink="http://www.w3.org/1999/xlink" width="150" height="150" viewBox="0 0 150 150"><path fill-rule="evenodd" clip-rule="evenodd" fill="#DDDDDC" d="M52.667 25.464l56.667 12.003-15.667 86.651H51.333z"/><path fill="#FFF" d="M93.667 124.118L122.334 150l26.857-80.648-39.858-31.884z"/><path fill-rule="evenodd" clip-rule="evenodd" fill="#50A9AA" d="M95.996 111.231H51.507l-.174 12.887h42.333l2.33-12.886zM52.667 25.464l11.666 16.155 42.745 8.321 2.256-12.473z"/><path fill="#318FA6" d="M107.078 49.94l29.086 24.757-18.831 56.173-21.337-19.638-2.33 12.886L122.333 150 150 69.07l-40.667-31.602z"/><path fill="none" stroke="#878787" stroke-miterlimit="10" d="M74.473 71.379l14.194 1.184M74.079 74.781l14.193 1.035M73.667 77.833l9.419.691M73 80.833l9.419.691M72.667 83.917l9.419.69M121.244 69.485l9.839 9.059M120.478 73.08l9.328 8.483M119.583 76.53l7.028 6.327"/><path fill="#5EC0D9" d="M113.336 100.743l-1.25-16.338-12.373 1.942-13.526-24.482-21.889 6.84-.596-1.91 23.445-7.326 13.64 24.684 13.127-2.058 1.416 18.496z"/><path fill-rule="evenodd" clip-rule="evenodd" fill="#318FA6" d="M79.917 60l7.5-5.75 6.25 8.25-9.25 4.5z"/><path fill-rule="evenodd" clip-rule="evenodd" fill="#27788C" d="M72.82 98.235l-21.487 25.883-22.169-48.765z"/><path fill-rule="evenodd" clip-rule="evenodd" fill="#7DDAEA" d="M119.526 97.466l-15.114 4.144 2.369 13.807 13.243-3.188-.498-14.763zm-9.873 12.315l-1.021-5.312 5.67-1.725 1.374 5.313-6.023 1.724z"/><path fill-rule="evenodd" clip-rule="evenodd" fill="#1C7678" d="M107.75 80.25l8.5-4.25 2.25 10-9.25 3.75z"/><path fill-rule="evenodd" clip-rule="evenodd" fill="#A3A3A3" d="M79.75 97.25l13 .5-1.25 7-13-.25z"/><g opacity=".12"><defs><path id="a" d="M51.333 25.464h58v98.653h-58z"/></defs><clipPath id="b"><use xlink:href="#a" overflow="visible"/></clipPath><path clip-path="url(#b)" fill-rule="evenodd" clip-rule="evenodd" fill="#2B2B2B" d="M109.333 37.467L52.667 25.464l-1.334 98.653h42.333z"/></g><path fill="#FFF" d="M0 35.592l19.333 87.025L72.82 98.235 59.192 6.333z"/><path fill="#318FA6" d="M0 35.592l19.333 87.025L72.82 98.235 71 85.961l-43.667 20.527L12 43.094l49.199-23.231-.452-3.042-1.555-10.488z"/><path fill="#5EC0D9" d="M34.0683748 55.9592272l17.2486704 11.96658-1.14 1.6432-17.2486704-11.96658zM66.906 58.354l-12.718 9.371 1.187 1.611 11.863-8.743z"/><path fill-rule="evenodd" clip-rule="evenodd" fill="#8CE0DC" d="M49.919 62.278l6.863 3.537-2.594 8.199-8.18-4.248z"/><path fill-rule="evenodd" clip-rule="evenodd" fill="#318FA6" d="M26.75 44.25L20.5 56.5l11.5 8L39 50l-12.25-5.75zM30 58.5l-4.5-3 2.75-5.25L33 53l-3 5.5z"/><path fill="none" stroke="#878787" stroke-miterlimit="10" d="M28.277 78.721l12.888-6.066M29.333 82l13.115-6.329M30.333 85.083l8.808-4.226"/><path fill-rule="evenodd" clip-rule="evenodd" fill="#CECECD" d="M40.5 37.75L54.25 31l1 7.5-13 6zM43.25 48L51 44.75l.75 5.25-7.25 3z"/></svg>