<svg id="icon_layer" xmlns="http://www.w3.org/2000/svg" viewBox="0 0 150 150"><defs><style>.cls-1{fill:#c2977b;}.cls-1,.cls-10,.cls-11,.cls-12,.cls-13,.cls-14,.cls-15,.cls-2,.cls-3,.cls-4,.cls-5,.cls-6,.cls-7,.cls-8,.cls-9{fill-rule:evenodd;}.cls-2{fill:#593e35;}.cls-3{fill:#a17e6e;}.cls-4{fill:#7f5d4e;}.cls-5{fill:#8a6651;}.cls-6{fill:#debca4;}.cls-7{fill:#165e60;}.cls-8{fill:#1c7678;}.cls-9{fill:#50a8a9;}.cls-10{fill:#73cee4;}.cls-11{fill:#3a9fb9;}.cls-12{fill:#318ea5;}.cls-13{fill:#72cacb;}.cls-14{fill:#27788b;}.cls-15{fill:#5ebfd8;}</style></defs><title>icon_sales_friendships</title><polygon class="cls-1" points="87.68 76.9 68.44 83.16 73.19 86.89 82.11 91.41 102.07 92.14 95.1 82.5 87.68 76.9"/><polygon class="cls-2" points="51.7 50.86 42.81 56.83 39.16 53.28 36.63 47.5 44.17 48.15 51.7 50.86"/><polygon class="cls-3" points="68.55 19.46 62.22 53.2 45.59 42.13 38.22 36.01 38.09 32.33 39.76 28.23 44.17 27.61 46.87 29.33 48.01 23.63 51.62 16.14 60.39 16.99 68.55 19.46"/><polygon class="cls-4" points="38.22 36.01 62.22 53.2 20.66 43.95 38.22 36.01"/><polygon class="cls-4" points="0.1 65.47 11.05 99.52 15.56 82.5 16.16 70 9.89 67.26 0.1 65.47"/><polygon class="cls-5" points="98.67 51.88 106.04 56.83 111.62 54.87 118.23 49.74 107.91 49.74 98.67 51.88"/><polygon class="cls-3" points="55.51 75.35 82.11 91.41 78.34 97.58 71.26 94.29 64.33 89.55 63.14 92.52 60.39 94.69 44.17 92.82 48.48 83.39 55.51 75.35"/><polygon class="cls-6" points="80.3 19.46 86.63 53.2 102.07 43.95 110.62 36.01 110.62 31.74 109.08 28.23 106.04 27.97 101.98 29.33 101 23.63 97.23 16.14 88.49 16.64 80.3 19.46"/><polygon class="cls-1" points="110.62 36.01 86.63 53.2 118.23 49.74 128.18 43.95 110.62 36.01"/><polygon class="cls-6" points="149.9 73.41 137.79 108.39 132.51 105.03 128.18 99.52 129.09 86.47 131.87 75.35 139.59 73.41 149.9 73.41"/><polygon class="cls-6" points="60.39 94.69 64.33 89.55 78.34 97.58 74.57 103.76 60.39 94.69"/><polygon class="cls-7" points="42.28 138.69 53.75 149.1 11.05 149.1 30.66 141.02 42.28 138.69"/><polygon class="cls-8" points="39.81 99.52 53.75 126.69 42.28 138.69 39.4 119.11 39.81 99.52"/><polygon class="cls-8" points="68.55 19.46 51.62 16.14 46.87 29.33 39.76 28.23 38.22 36.01 20.66 43.95 21.93 10.45 32.4 3.3 70.51 9.02 68.55 19.46"/><polygon class="cls-9" points="70.51 9.02 21.93 10.45 29.58 0.9 70.51 9.02"/><polygon class="cls-10" points="20.66 43.95 25.43 63.84 31.48 75.36 33.61 85.44 39.81 99.52 55.51 75.35 36.63 47.5 20.66 43.95"/><polygon class="cls-11" points="20.66 43.95 16.16 61.6 16.16 70 22.4 73.41 31.48 75.35 20.66 43.95"/><polygon class="cls-10" points="20.66 43.95 0.1 65.47 16.16 70 20.66 43.95"/><polygon class="cls-12" points="16.16 70 31.48 75.35 39.81 99.52 25.43 101.72 11.05 99.52 16.16 70"/><polygon class="cls-13" points="11.05 99.52 11.05 131.63 26.67 126.03 40.94 117.34 39.81 99.52 11.05 99.52"/><polygon class="cls-9" points="11.05 131.63 40.94 117.34 42.28 138.69 11.05 149.1 11.05 131.63"/><polygon class="cls-14" points="106.57 138.69 95.1 149.1 137.79 149.1 118.23 140.91 106.57 138.69"/><polygon class="cls-11" points="80.3 19.46 97.23 16.14 101.98 29.33 109.08 28.23 110.62 36.01 128.18 43.95 126.92 10.45 117.76 4.4 78.34 9.02 80.3 19.46"/><polygon class="cls-11" points="109.04 99.52 95.1 126.69 106.57 138.69 109.71 118.19 109.04 99.52"/><polygon class="cls-10" points="78.34 9.02 126.92 10.45 119.27 0.9 78.34 9.02"/><polygon class="cls-13" points="128.18 43.95 124.6 58.89 120.15 67.26 117.11 79.42 109.04 99.52 105.48 72.22 106.04 56.83 128.18 43.95"/><polygon class="cls-9" points="128.18 43.95 131.87 62.78 131.87 75.35 120.15 67.26 128.18 43.95"/><polygon class="cls-13" points="128.18 43.95 149.9 73.41 131.87 75.35 128.18 43.95"/><polygon class="cls-10" points="137.79 108.39 137.79 131.63 120.15 124.5 107.91 117.34 109.04 99.52 119.17 97.58 128.18 99.52 137.79 108.39"/><polygon class="cls-15" points="137.79 131.63 107.91 117.34 106.57 138.69 137.79 149.1 137.79 131.63"/><polygon class="cls-8" points="131.87 75.35 120.15 67.26 109.04 99.52 128.18 99.52 131.87 75.35"/><polygon class="cls-8" points="106.04 56.83 87.68 76.9 109.04 99.52 106.04 56.83"/></svg>