<svg xmlns="http://www.w3.org/2000/svg" viewBox="0 0 63.47 63.47"><defs><style>.a{fill:#3a9ebc;}.b{fill:#2b8da8;}.c{fill:#6bc1dd;}.d{fill:#87cfe6;}.e{fill:#50a8ab;}.f{fill:#319397;}.g{fill:#33302d;opacity:0.1;}</style></defs><title>gifts</title><polygon class="a" points="16.73 26.17 28.21 63.47 59.46 52.86 60.01 25.32 16.73 26.17"/><polygon class="b" points="2.9 23.61 2.07 50.12 28.21 63.47 29.31 37.64 2.9 23.61"/><polygon class="c" points="20.88 16.77 29.31 37.64 62.91 28.23 63.47 15.05 20.88 16.77"/><polygon class="a" points="26.27 13 0.69 12.32 0 26 29.31 37.64 30.28 23.95 26.27 13"/><polygon class="d" points="0.69 12.32 30.28 23.95 63.47 15.05 34.43 5.13 0.69 12.32"/><path class="e" d="M21.8,14.94c-.28,0-5.9-.23-5.9-.23L9.63,15.85l4.52,6.28,7.65-1.37,5.26-3.08Z"/><polygon class="f" points="36.46 9.01 32.86 11.18 28.71 11.75 30.56 15.4 32.31 14.14 35.72 13.23 36.46 9.01"/><polygon class="f" points="37.75 7.75 51.21 4.9 50.93 10.84 35.72 13.23 37.75 7.75"/><polygon class="f" points="24.38 11.86 15.35 9.35 15.9 14.71 29.08 20.19 31.02 18.02 24.38 11.86"/><polygon class="e" points="28.71 11.75 15.35 9.35 31.02 18.02 32.31 14.14 28.71 11.75"/><polygon class="e" points="32.86 11.18 38.02 0 51.21 4.9 35.72 13.23 32.86 11.18"/><polygon class="g" points="17.65 27.71 21.8 20.76 20.6 34.1 21.33 34.47 16.59 57.61 17.65 27.71"/><polygon class="f" points="9.63 15.85 7.79 53.03 16.59 57.61 21.8 20.76 9.63 15.85"/></svg>