<svg xmlns="http://www.w3.org/2000/svg" viewBox="0 0 150 150"><g fill-rule="evenodd" clip-rule="evenodd"><path fill="#DDDDDC" d="M47.894 54.901l32.25-6.07L68.168 0 0 15.262l9.532 51.181 20.46-6.047 21.298 9.181z"/><circle fill="#777" cx="27.634" cy="31.47" r="2.996"/><circle fill="#777" cx="38.272" cy="31.47" r="2.996"/><circle fill="#777" cx="48.907" cy="31.47" r="2.996"/></g><g fill-rule="evenodd" clip-rule="evenodd"><path fill="#EBBEA7" d="M43.019 106.833l-2.447-17.466-5.905-2.001-1.97 12.967z"/><path fill="#72C9A6" d="M116.924 111.221l24.182 10.024L143 142.772l-15.055 4.514L102.499 150l-39.334-7.139L57 136l6.18-28.047 21.962-2.03z"/><path fill="#54B08B" d="M141.106 121.245l-13.151 26.131 19.877-2.212z"/><path fill="#3F8F6F" d="M63.18 107.953v34.819l-15.286-2.682z"/><path fill="#54B08B" d="M63.18 142.772l-17.016-28.439-9.06.246-7.911 2.088 5.14 24.666z"/><path fill="#3F8F6F" d="M116.924 111.221L113.812 134l-28.271-6.039-.399-22.038z"/><path fill="#FCDAC7" d="M67.24 31.836l57.94 16.103-15.368 59.378L51.29 91.316z"/><path fill="#EBBEA7" d="M104.802 60.369l-8.609 3.348-7.959 9.593-4.275-3.151-5.513.815-.755-11.909-6.266-8.048 11.249 3.105 9.962 2.857z"/><path fill="#FDE9E0" d="M92.636 56.979L88.234 73.31l-9.788-2.336 4.228-16.852z"/><path fill="#BFDB8E" d="M67.24 31.836l37.129-13.572-11.467 20.705z"/><path fill="#99C26D" d="M104.369 18.264l45.306 26.322-24.495 3.353-32.278-8.97z"/><path fill="#EBBEA7" d="M125.18 47.939l4.413 27.004 7.003-3.328 8.877 8.788-42.974 46.391 7.313-19.477z"/><path fill="#709D53" d="M125.18 47.939l24.495-3.353-4.202 35.817-8.877-8.788-7.003 3.328z"/><path fill="#C2927D" d="M79.381 98.995l23.118 27.799 7.313-19.477zM135.071 91.629l-7.116-4.264v11.63z"/><path fill="#709D53" d="M104.802 60.369l-10.938-7.563-1.228 4.173zM83.959 50.069l-1.285 4.053-11.249-3.105z"/><path fill="#C2927D" d="M88.234 73.31l-5.467 2.803-4.321-5.139z"/><path fill="#494949" d="M100.63 65.022c0 1.739-1.411 3.153-3.153 3.153-1.739 0-3.155-1.414-3.155-3.153 0-1.742 1.416-3.153 3.155-3.153 1.743 0 3.153 1.411 3.153 3.153z"/><circle fill="#494949" cx="75.527" cy="59.648" r="3.152"/><path fill="#C2927D" d="M68.168 75.881l31.529 7.941-11.411 7.44-14.98-3.937z"/><path fill="#FFF" d="M93.148 84.425l-19.842-5.22 1.739 6.471 12.45 3.207z"/><path fill="#C2927D" d="M141.106 80.789l-6.088-3.597-3.595 8.023z"/><path fill="#EBBEA7" d="M46.164 114.333l-3.145-7.5-13.034-1.574-10.756.526 9.964 10.882z"/><path fill="#FCDAC7" d="M43.019 106.833l-30.352-24.63-1.503 12.68 8.065 10.902z"/></g></svg>