<svg xmlns="http://www.w3.org/2000/svg" xmlns:xlink="http://www.w3.org/1999/xlink" width="150" height="150" viewBox="0 0 150 150"><path fill-rule="evenodd" clip-rule="evenodd" fill="#29788B" d="M17.945 22.588l2.388 13.775 11.874 13.344 2.134-12.171z"/><path fill-rule="evenodd" clip-rule="evenodd" fill="#2C7D93" d="M34.85 62.842L4.271 70.253l8.604 11.228 26.736-3.71.507-4.438z"/><path fill-rule="evenodd" clip-rule="evenodd" fill="#237689" d="M56.298 67.688l.482-23.155-8.074-17.89-5.421 30.917 6.392 6.074z"/><path fill-rule="evenodd" clip-rule="evenodd" fill="#7FD0E2" d="M102.837 118.914L45.532 55.837l-5.428 3.06-4.524 6.06 53.138 69.258z"/><path fill-rule="evenodd" clip-rule="evenodd" fill="#20A6AF" d="M88.703 147L39.612 77.771 35.58 64.957l53.399 67.273 1.865 6.67z"/><path fill-rule="evenodd" clip-rule="evenodd" fill="#297C92" d="M102.837 118.914l.945 13.248L88.703 147l.276-14.771z"/><path fill="#37A0BC" d="M32.095 39.259L17.249 52.108 0 37.621l4.271 32.631 31.31-5.294 9.95-9.122 3.175-29.193-30.761-4.056z"/><path fill-rule="evenodd" clip-rule="evenodd" fill="#72CBD5" d="M21.883 57.179l14.339-12.412 4.467 5.048-14.422 12.401z"/><path fill-rule="evenodd" clip-rule="evenodd" fill="#19756A" d="M26.38 53.286l-2.124 1.839 2.011 7.09 2.045-1.758zM30.659 58.439l2.786-2.395-2.502-6.707-1.958 1.695zM35.553 54.23l2.572-2.21-1.903-7.253-2.295 1.987z"/><defs><path id="a" d="M0 0h150v150H0z"/></defs><clipPath id="b"><use xlink:href="#a" overflow="visible"/></clipPath><g opacity=".2" clip-path="url(#b)"><defs><path id="c" d="M63.212 92.391h24.694v31.445H63.212z"/></defs><clipPath id="d"><use xlink:href="#c" overflow="visible"/></clipPath><path clip-path="url(#d)" fill-rule="evenodd" clip-rule="evenodd" fill="#2B2B2B" d="M87.906 102.479l-14.231 10.47-1.398 10.886-9.065-12.782 2.009-8.754 13.52-9.908z"/></g><path fill-rule="evenodd" clip-rule="evenodd" fill="#1C7677" d="M103.93 24.835l-.706-6.516-8.343-7.535-13.436-1.228-.468 5.117 7.878 5.559-2.396 26.231 11.26-10.26z"/><path fill-rule="evenodd" clip-rule="evenodd" fill="#50A8AD" d="M103.93 24.835l-9.049-14.051 15.79 3.7 11.594 14.317-8.883 1.899z"/><path fill-rule="evenodd" clip-rule="evenodd" fill="#C3C3C8" d="M30.579 115.064l67.042-56.612 2.597 7.01-33.163 34.826-36.059 31.266z"/><path fill-rule="evenodd" clip-rule="evenodd" fill="#868686" d="M30.996 131.554l69.222-66.092 5.396 4.365-59.118 65.078z"/><path fill="#80D0E3" d="M117.537 69.949L150 72.22l-15.082-40.681-30.987-6.704z"/><path fill-rule="evenodd" clip-rule="evenodd" fill="#3A9FBA" d="M103.93 24.835l14.83 42.322-7.049 8.251-13.569 12.768-11.683-41.713z"/><path fill="#318EA5" d="M98.142 88.176l36.934 3.375L150 72.219l-31.239-5.063z"/><path fill-rule="evenodd" clip-rule="evenodd" fill="#73CACB" d="M121.868 75.505l12.796 1.169 2.643 6.371-18.089.282z"/><path fill-rule="evenodd" clip-rule="evenodd" fill="#4FA8A9" d="M121.868 75.505l-6.78 7.122 8.144-.869z"/><path fill-rule="evenodd" clip-rule="evenodd" fill="#73CBCD" d="M143.223 80.998l-29.383-2.356 4.832 12.7 15.966 5.007 13.716-3.585z"/><path fill-rule="evenodd" clip-rule="evenodd" fill="#4EA9AB" d="M113.84 78.643l6.683 11.578-2.867 10.265-8.719 14.159-6.885-16.436z"/><path fill-rule="evenodd" clip-rule="evenodd" fill="#175E61" d="M120.523 90.221l27.831 2.543-12.426 19.508-26.99 2.373z"/><path fill="none" d="M0 0h150v150H0z"/></svg>